PathFileType	4	(X/Y/Z)	C:\Users\WrightLab\Desktop\Jo\P3_3.trc
DataRate	CameraRate	NumFrames	NumMarkers	Units	OrigDataRate	OrigDataStartFrame	OrigNumFrames
100.00	100.00	       36	19	mm	100.00	1	       729
Frame#	Time	Headset_Front			Headset_Back			Headset_Left			Headset_Right			Left_Shoulder			Right_Shoulder			Sternum			C7			Left Elbow			Right Elbow			Left Wrist			Right Wrist			Left ASIS			Right ASIS			S2			Left Knee			Right Knee			Left Ankle			Right Ankle			
		X1	Y1	Z1	X2	Y2	Z2	X3	Y3	Z3	X4	Y4	Z4	X5	Y5	Z5	X6	Y6	Z6	X7	Y7	Z7	X8	Y8	Z8	X9	Y9	Z9	X10	Y10	Z10	X11	Y11	Z11	X12	Y12	Z12	X13	Y13	Z13	X14	Y14	Z14	X15	Y15	Z15	X16	Y16	Z16	X17	Y17	Z17	X18	Y18	Z18	X19	Y19	Z19	

1	0.000																-122.73180	1396.39893	2505.26782							-520.05115	1061.78186	2380.14331	-59.10220	1055.43347	2570.42090																			-67.18833	533.37872	2334.66602	-358.65988	175.05594	2613.63062	-60.56177	202.66859	2416.77881	
2	0.010																-121.17722	1396.08325	2501.94409							-519.37030	1061.89856	2373.98022	-57.50182	1054.79089	2567.15430																			-64.87497	533.22101	2330.30664	-358.62433	175.16188	2613.23242	-54.71045	201.15573	2404.99097	
3	0.020																-119.57370	1395.57886	2497.45337							-517.60687	1061.50562	2366.42041	-55.93899	1054.47961	2563.41260																			-62.75312	533.74261	2327.02173	-358.03964	175.45760	2612.75684	-49.82177	198.98967	2390.27368	
4	0.030																-118.84997	1395.43628	2493.49976							-516.57739	1061.97791	2359.84473	-54.78845	1054.25854	2560.17896																			-60.87235	533.09570	2323.72559	-358.00717	175.92889	2612.43433	-44.44992	197.37843	2376.16040	
5	0.040																-117.50186	1394.78821	2489.65015							-515.34302	1062.67102	2353.27344	-53.33524	1053.83008	2556.47632																			-58.41375	532.82941	2320.40796	-357.57278	176.05730	2611.79346	-39.81681	196.17773	2361.76392	
6	0.050																-115.46810	1394.28613	2485.19434							-514.49329	1063.06580	2346.40308	-51.40363	1053.40759	2552.10669													-294.29663	995.45508	2582.26538				-56.64840	532.30591	2317.24072	-357.71121	176.42839	2611.58691	-34.28664	195.26392	2349.70313	
7	0.060																-113.84502	1393.48230	2481.85986							-512.71112	1062.71521	2338.70874	-49.71790	1052.96912	2548.96680													-292.26828	994.92078	2578.28955				-54.81614	532.63672	2314.29810	-357.43820	176.58360	2611.09424	-29.56100	193.59987	2335.07056	
8	0.070																-112.01455	1393.44360	2477.00732							-511.07123	1063.09485	2331.17236	-47.46311	1052.33704	2544.66284													-290.30954	994.04218	2574.01538				-52.97058	531.45984	2311.09131	-358.75388	176.96333	2614.36304	-25.11020	193.62024	2322.74438	
9	0.080																-110.07777	1392.40271	2472.81201							-509.85693	1063.70337	2323.73633	-45.38406	1052.09473	2540.81714													-288.30539	993.71490	2570.12085				-51.01330	530.50543	2307.43579	-358.46552	177.24702	2613.24048	-20.57814	191.64835	2307.51294	
10	0.090																-108.46146	1391.76233	2468.20654							-508.14447	1064.42676	2316.33691	-43.33699	1051.39490	2536.90039													-286.12314	993.14221	2566.49316				-49.67725	529.70886	2304.60913	-358.41727	177.67366	2612.52246	-16.25193	192.18753	2296.38477	
11	0.100																-106.06894	1390.16968	2463.58008							-506.14145	1064.54858	2307.90527	-41.05570	1050.68958	2532.35498													-283.85593	992.11108	2562.10840				-47.75877	527.90002	2301.40674	-358.12308	178.03485	2612.60400	-12.46772	191.90736	2284.44531	
12	0.110																-103.70409	1389.75818	2459.18140							-504.44611	1064.80725	2299.78052	-38.93535	1050.11938	2528.11157													-281.21368	991.66132	2557.43872				-46.63261	527.16376	2297.19531	-358.21082	178.64192	2611.08447	-7.68627	191.39085	2271.70337	
13	0.120																-101.45809	1389.02356	2455.40796							-502.77222	1065.53052	2291.74194	-36.73298	1049.28906	2523.86548													-278.12259	990.42438	2552.07666				-45.42122	525.55292	2293.47144	-357.76840	179.26790	2610.52661	-5.60488	192.70738	2259.92334	
14	0.130																-98.96007	1388.55371	2451.02856							-500.09329	1066.51880	2284.35669	-34.27128	1048.57629	2519.25293													-275.87534	989.54810	2547.85498				-44.04346	524.55261	2291.69409	-357.83301	180.25516	2609.33105	-3.15779	192.10890	2247.76563	
15	0.140																-96.66793	1387.52820	2446.67090							-498.73581	1067.24023	2277.40869	-31.80167	1047.72400	2514.69360													-273.02960	989.31073	2543.01929				-42.46749	522.86719	2287.48193	-357.68262	180.75543	2609.52271	0.15254	192.05643	2238.75537	
16	0.150																-94.20443	1386.50012	2441.86157							-496.34711	1067.25195	2268.48804	-28.69403	1046.56177	2509.49023													-269.95996	987.67908	2537.76587				-41.53257	521.15900	2282.12598	-357.05396	181.28612	2607.27905	2.26220	191.75000	2229.44019	
17	0.160																-91.53745	1385.82068	2436.99146							-494.14407	1067.82397	2260.44995	-26.21258	1045.97900	2505.19531													-267.41464	987.13928	2533.60303				-39.45631	519.18964	2278.75708	-356.86572	182.06880	2607.27344	4.63591	192.03096	2221.86182	
18	0.170																-88.98091	1385.00342	2432.82788							-492.13077	1068.55029	2253.42847	-23.30056	1045.03845	2500.43286													-264.19424	986.30060	2527.87866				-37.33211	517.90997	2274.14136	-358.23508	185.27278	2607.61890	5.26740	190.75606	2212.01563	
19	0.180																-85.73985	1383.99890	2427.01611							-489.35110	1069.70532	2245.34180	-20.44973	1044.13318	2495.02686				29.07146	855.39063	2375.47144							-260.87704	985.37762	2522.26221				-35.34282	516.40076	2270.78003	-356.67673	183.96095	2604.83521	7.18778	189.72838	2207.39282	
20	0.190																-83.08260	1382.80200	2422.59033							-487.43961	1070.47888	2237.93921	-17.59617	1043.23291	2490.04956				32.45964	855.82056	2371.07935							-257.36142	984.18567	2516.43506				-33.92206	515.32465	2264.04419	-356.71933	185.11681	2603.49878	8.67343	188.38704	2203.29883	
21	0.200																-79.98508	1382.46643	2417.55859							-484.34146	1071.55054	2230.38306	-14.76306	1042.82837	2484.92432				35.69847	854.01080	2364.26929							-254.00810	983.43878	2510.89648				-32.30671	513.84161	2257.52246	-356.62903	186.28101	2602.30981	8.37814	186.15134	2195.45459	
22	0.210																-76.95808	1382.02197	2412.38672							-482.07089	1072.29358	2222.98779	-11.28635	1041.73352	2478.89233				38.73006	854.43835	2359.65161							-250.33852	982.13092	2504.93262				-30.43865	512.56952	2253.75708	-356.94638	187.49704	2601.12573	8.65246	184.42294	2193.43726	
23	0.220																-73.64179	1380.70117	2407.44116							-479.10089	1072.40369	2214.61938	-8.21743	1040.95227	2473.85620	-438.17725	933.35889	2064.67651	42.24356	853.62732	2352.68237							-246.63304	981.43427	2499.03955				-27.92956	511.01627	2247.54810	-357.31088	189.29176	2598.41479	9.15427	181.41104	2191.49438	
24	0.230																-70.04137	1380.23096	2402.02539							-477.07965	1073.14478	2207.72217	-4.72387	1040.28284	2467.95337	-436.06946	936.24170	2054.46362	45.80307	853.04889	2347.82983							-242.88174	980.16669	2492.82764				-26.43440	509.54031	2240.57446	-357.35468	190.87341	2597.79419	8.08703	179.30716	2187.37524	
25	0.240																-66.54093	1379.62915	2396.66064							-473.61221	1074.04126	2200.23901	-1.29186	1039.62683	2462.03003	-433.78433	939.51489	2045.18872	48.18363	852.87933	2339.69263							-239.07951	979.81116	2486.67944				-24.94597	507.68561	2233.09033	-358.96844	193.82538	2597.28687	7.01804	176.59541	2185.54883	
26	0.250																-63.16699	1378.77966	2391.87378							-470.60657	1074.79236	2192.79590	2.64461	1038.46326	2456.03027	-431.42151	942.53723	2035.83069	52.90728	852.04224	2335.23828							-234.87196	978.43109	2479.82031				-22.63495	506.52319	2228.01318	-358.55786	196.84686	2595.61353	6.55537	172.58673	2184.33862	
27	0.260																-59.22177	1378.42981	2386.49243				-237.55954	1427.57532	2394.96558	-467.93121	1075.91772	2186.19385	6.05714	1037.95264	2450.01758	-429.08133	945.59857	2025.64294	56.09922	851.72168	2326.71631							-230.46791	977.68585	2472.45679				-21.61279	504.42496	2220.53760	-357.00781	195.46877	2591.09009	5.92457	170.61551	2184.02563	
28	0.270				-198.57857	1656.24805	2340.81543										-55.15316	1377.69849	2380.96802				-233.29820	1427.19385	2389.33301	-464.29379	1076.33203	2177.97144	9.84416	1037.39734	2443.94409	-426.80743	948.63110	2017.29614	60.63330	851.16583	2322.72559							-226.15321	977.08551	2465.47632				-20.44850	502.42331	2214.70117	-356.52335	197.55518	2589.47485	5.35155	169.12833	2177.13818	
29	0.280				-194.69717	1655.80164	2334.72241										-51.22970	1377.32410	2375.54175				-229.35587	1426.60010	2384.06665	-461.74301	1076.87561	2170.48560	13.92549	1036.27808	2437.55200	-424.30289	951.69519	2006.79749	63.66610	850.36035	2314.54419							-221.69823	976.04138	2458.19434				-18.99066	501.76495	2207.68335	-355.29529	199.83394	2586.75830	6.26163	169.08940	2174.13086	
30	0.290				-191.33987	1655.74622	2329.62280										-47.08854	1377.00330	2370.19824				-225.40996	1425.89307	2378.26465	-457.76608	1077.44446	2162.11182	18.27567	1035.66040	2430.76611	-422.07947	954.27979	1998.17676	67.75446	850.18213	2308.18042							-217.08707	975.19794	2450.64502				-17.14333	500.35202	2200.79663	-354.84052	201.90915	2583.62378	5.93138	167.70660	2168.96558	
31	0.300				-187.74333	1655.77979	2324.13062										-42.72281	1376.18872	2364.13501				-221.13292	1425.30981	2372.16382	-454.21603	1078.56812	2154.66138	22.11996	1035.28027	2424.37402	-419.69543	957.09357	1988.66797	71.76691	850.08795	2300.50073							-212.61865	974.66406	2443.44873				-14.42317	499.84607	2194.44165	-355.89865	205.82077	2582.28760	6.65815	166.12003	2165.64600	
32	0.310				-183.73650	1655.47546	2318.23071										-38.41984	1375.72925	2358.24390				-216.97142	1424.96960	2366.93481	-451.57492	1079.71069	2148.04272	26.29881	1034.95105	2418.00513	-417.24463	959.98822	1978.90051	76.34936	849.64166	2293.61768							-207.95930	974.00189	2435.54053				-12.16422	500.18640	2187.66455	-354.96649	209.50726	2579.17456	7.97345	164.75723	2162.42993	
33	0.320				-179.90958	1655.55347	2312.16064										-34.15776	1375.28040	2352.26880				-212.74449	1424.97852	2361.67480	-447.54596	1080.78357	2140.23096	30.91647	1034.35645	2411.05981	-414.74240	962.75720	1970.64526	80.41222	849.88544	2285.77417							-203.47816	973.65118	2427.40649				-9.73037	500.27911	2180.77808	-352.64679	209.95502	2574.12646	9.07130	163.74872	2159.83301	
34	0.330				-176.04497	1655.77905	2306.56006										-29.48270	1374.99951	2345.92676				-208.21457	1424.40540	2355.57349	-443.93161	1081.56396	2132.43945	35.24005	1034.08826	2404.13623	-412.52078	965.69446	1961.56323	84.66714	849.47607	2279.08228							-199.12453	973.09882	2419.80908				-6.82575	499.68634	2172.30005	-352.28589	214.70406	2572.36792	10.25001	163.58528	2158.09399	
35	0.340				-172.10551	1656.03503	2300.58936										-25.30954	1375.14905	2340.54688				-203.72821	1424.36096	2348.92163	-440.82968	1082.22119	2125.25830	40.07361	1033.71655	2396.81519	-409.99304	968.60504	1952.39587	88.98201	849.89532	2271.18970							-194.40254	972.94220	2411.38599				-3.21826	498.88889	2164.74756	-349.99170	215.17163	2565.62402	11.89366	161.44106	2154.74072	
36	0.350				-168.23717	1656.65686	2294.45630										-21.23263	1375.70313	2335.03809				-199.33838	1423.86267	2342.20923	-436.98077	1082.96790	2117.81445	44.46098	1034.30090	2390.25562	-407.60840	971.32703	1944.58423	93.63396	850.18475	2263.30786							-190.02965	972.85883	2403.29126				-0.07702	499.24362	2159.22876	-349.82556	220.20549	2562.82593	12.93609	161.29167	2153.30103	
